<svg height="542" width="720" xmlns="http://www.w3.org/2000/svg">
<rect height="542" fill="#555" width="720"></rect>
<text fill="#7f7" font-family="Courier New" font-size="12" xml:space="preserve">
<tspan x="10" y="26">5 megabytes</tspan>
<tspan x="10" y="42">└─┬ module-deps@4.1.1 </tspan>
<tspan x="10" y="58">  ├─┬ browser-resolve@1.11.2 </tspan>
<tspan x="10" y="74">  │ └── resolve@1.1.7 </tspan>
<tspan x="10" y="90">  ├── cached-path-relative@1.0.1 </tspan>
<tspan x="10" y="106">  ├─┬ concat-stream@1.5.2 </tspan>
<tspan x="10" y="122">  │ ├── readable-stream@2.0.6 </tspan>
<tspan x="10" y="138">  │ └── typedarray@0.0.6 </tspan>
<tspan x="10" y="154">  ├── defined@1.0.0 </tspan>
<tspan x="10" y="170">  ├─┬ detective@4.5.0 </tspan>
<tspan x="10" y="186">  │ └── acorn@4.0.11 </tspan>
<tspan x="10" y="202">  ├── duplexer2@0.1.4 </tspan>
<tspan x="10" y="218">  ├── inherits@2.0.3 </tspan>
<tspan x="10" y="234">  ├─┬ JSONStream@1.3.1 </tspan>
<tspan x="10" y="250">  │ ├── jsonparse@1.3.0 </tspan>
<tspan x="10" y="266">  │ └── through@2.3.8 </tspan>
<tspan x="10" y="282">  ├─┬ parents@1.0.1 </tspan>
<tspan x="10" y="298">  │ └── path-platform@0.11.15 </tspan>
<tspan x="10" y="314">  ├─┬ readable-stream@2.2.6 </tspan>
<tspan x="10" y="330">  │ ├── buffer-shims@1.0.0 </tspan>
<tspan x="10" y="346">  │ ├── core-util-is@1.0.2 </tspan>
<tspan x="10" y="362">  │ ├── isarray@1.0.0 </tspan>
<tspan x="10" y="378">  │ ├── process-nextick-args@1.0.7 </tspan>
<tspan x="10" y="394">  │ ├── string_decoder@0.10.31 </tspan>
<tspan x="10" y="410">  │ └── util-deprecate@1.0.2 </tspan>
<tspan x="10" y="426">  ├─┬ resolve@1.3.2 </tspan>
<tspan x="10" y="442">  │ └── path-parse@1.0.5 </tspan>
<tspan x="10" y="458">  ├── stream-combiner2@1.1.1 </tspan>
<tspan x="10" y="474">  ├─┬ subarg@1.0.0 </tspan>
<tspan x="10" y="490">  │ └── minimist@1.2.0 </tspan>
<tspan x="10" y="506">  ├── through2@2.0.3 </tspan>
<tspan x="10" y="522">  └── xtend@4.0.1</tspan>
</text>
</svg>
